<?xml version="1.0" encoding="utf-8"?>
<!-- Generator: Adobe Illustrator 16.0.0, SVG Export Plug-In . SVG Version: 6.00 Build 0)  -->
<!DOCTYPE svg PUBLIC "-//W3C//DTD SVG 1.1//EN" "http://www.w3.org/Graphics/SVG/1.1/DTD/svg11.dtd">
<svg version="1.1" id="Layer_1" xmlns="http://www.w3.org/2000/svg" xmlns:xlink="http://www.w3.org/1999/xlink" x="0px" y="0px"
	 width="468px" height="288px" viewBox="0 0 468 288" enable-background="new 0 0 468 288" xml:space="preserve">
<g>
	<g>
		<defs>
			<rect id="SVGID_1_" y="0" width="468" height="288"/>
		</defs>
		<linearGradient id="SVGID_2_" gradientUnits="userSpaceOnUse" x1="72.7534" y1="305.2461" x2="472.1781" y2="-94.1786">
			<stop  offset="0" style="stop-color:#00E0FF"/>
			<stop  offset="0.2144" style="stop-color:#49D9BC"/>
			<stop  offset="0.4252" style="stop-color:#89D381"/>
			<stop  offset="0.6149" style="stop-color:#BBCE53"/>
			<stop  offset="0.78" style="stop-color:#DFCB32"/>
			<stop  offset="0.9139" style="stop-color:#F5C91D"/>
			<stop  offset="1" style="stop-color:#FDC816"/>
		</linearGradient>
		<use xlink:href="#SVGID_1_"  overflow="visible" fill="url(#SVGID_2_)"/>
		<clipPath id="SVGID_3_">
			<use xlink:href="#SVGID_1_"  overflow="visible"/>
		</clipPath>
		<g clip-path="url(#SVGID_3_)">
			<g>
				<path fill="#C4C4C4" d="M481.03-9.432c-3.691-2.713-7.728-4.741-11.943-6.056h-24.349c-6.091,1.9-11.826,5.253-16.65,10.078
					L142.229,280.448c-7.766,7.766-11.732,17.886-11.922,28.063h99.159L481.03,56.948V-9.432z"/>
			</g>
			<g>
				<path fill="#C4C4C4" d="M149.216,278.072c-3.874,0-7.747-1.479-10.703-4.434c-5.91-5.911-5.91-15.494,0-21.404l106.137-106.137
					c5.911-5.91,15.494-5.91,21.405,0c5.91,5.911,5.91,15.494,0,21.405L159.918,273.639
					C156.963,276.594,153.089,278.072,149.216,278.072z"/>
			</g>
			<g>
				<path fill="#C4C4C4" d="M481.03,194.2l-37.836,37.836c-2.848,2.848-2.848,7.464,0,10.312c1.424,1.424,3.289,2.136,5.155,2.136
					s3.732-0.712,5.156-2.136l27.524-27.524V194.2z"/>
			</g>
			<g>
				<path fill="#C4C4C4" d="M353.329,194.676c-2.343,0-4.686-0.893-6.473-2.681c-3.574-3.574-3.574-9.369,0-12.944l64.185-64.184
					c3.574-3.574,9.37-3.574,12.944,0c3.574,3.575,3.574,9.37,0,12.944l-64.185,64.184
					C358.014,193.783,355.671,194.676,353.329,194.676z"/>
			</g>
			<g>
				<path fill="#C4C4C4" d="M50.049,264.252c-3.674,0-7.348-1.401-10.15-4.205c-5.605-5.605-5.605-14.694,0-20.301l100.662-100.661
					c5.605-5.606,14.695-5.606,20.301,0c5.605,5.606,5.605,14.694,0,20.301L60.199,260.047
					C57.397,262.851,53.723,264.252,50.049,264.252z"/>
			</g>
			<g>
				<path fill="#C4C4C4" d="M217.334,5.645c-14.069-14.069-36.88-14.069-50.948,0L-10.97,183v101.896L217.334,56.593
					C231.402,42.524,231.402,19.714,217.334,5.645z"/>
			</g>
			<g>
				<path fill="#1A1A1A" d="M481.03,71.642L283.908,268.764c-10.76,10.76-12.771,26.955-6.035,39.748h62.143L481.03,167.497V71.642z
					"/>
			</g>
			<g>
				<path fill="#1A1A1A" d="M481.03-15.488h-6.695L201.671,257.176c-13.935,13.935-18.919,33.417-14.986,51.336h121.063
					L481.03,135.229V-15.488z"/>
			</g>
			<g>
				<path fill="#1A1A1A" d="M74.632,104.921c-7.185-7.186-18.834-7.186-26.018,0l-59.583,59.583v52.037l85.602-85.602
					C81.817,123.755,81.817,112.105,74.632,104.921z"/>
			</g>
			<g>
				<path fill="#1A1A1A" d="M138.442,170.477c-1.772,0-3.545-0.676-4.897-2.029c-2.705-2.704-2.705-7.09,0-9.795l48.569-48.569
					c2.704-2.705,7.091-2.705,9.795,0c2.705,2.705,2.705,7.09,0,9.795l-48.569,48.569
					C141.988,169.801,140.215,170.477,138.442,170.477z"/>
			</g>
			<g>
				<path fill="#1A1A1A" d="M66.101-15.488L-10.97,61.583v147.624L206.745-8.509c2.188-2.188,4.127-4.53,5.846-6.979H66.101z"/>
			</g>
			<g>
				<path fill="#1A1A1A" d="M143.181,252.959c-5.459,0-10.919-2.084-15.085-6.249c-8.331-8.331-8.331-21.839,0-30.17L277.693,66.942
					c8.331-8.331,21.839-8.331,30.17,0s8.331,21.839,0,30.17L158.266,246.71C154.101,250.875,148.641,252.959,143.181,252.959z"/>
			</g>
		</g>
		<g clip-path="url(#SVGID_3_)">
			<path fill="#FFFFFF" d="M-33.97,125.387c-0.096,0-0.192-0.037-0.266-0.11c-0.146-0.146-0.146-0.384,0-0.53l84.75-84.75
				c0.146-0.146,0.385-0.146,0.531,0c0.146,0.146,0.146,0.384,0,0.53l-84.75,84.75C-33.777,125.35-33.874,125.387-33.97,125.387z"/>
		</g>
		<g clip-path="url(#SVGID_3_)">
			<path fill="#FFFFFF" d="M115.78,105.137c-0.096,0-0.192-0.037-0.266-0.11c-0.146-0.146-0.146-0.384,0-0.53l39.25-39.25
				c0.146-0.146,0.385-0.146,0.531,0c0.146,0.146,0.146,0.384,0,0.53l-39.25,39.25C115.973,105.1,115.876,105.137,115.78,105.137z"
				/>
		</g>
		<g clip-path="url(#SVGID_3_)">
			<path fill="#FFFFFF" d="M30.53,305.387c-0.096,0-0.192-0.036-0.266-0.109c-0.146-0.146-0.146-0.385,0-0.53l126-126
				c0.146-0.146,0.385-0.146,0.531,0c0.146,0.146,0.146,0.384,0,0.53l-126,126C30.723,305.351,30.626,305.387,30.53,305.387z"/>
		</g>
		<g clip-path="url(#SVGID_3_)">
			<path fill="#FFFFFF" d="M398.28,113.137c-0.096,0-0.192-0.037-0.266-0.11c-0.146-0.146-0.146-0.384,0-0.53l75.75-75.75
				c0.146-0.146,0.385-0.146,0.531,0c0.146,0.146,0.146,0.384,0,0.53l-75.75,75.75C398.473,113.1,398.376,113.137,398.28,113.137z"
				/>
		</g>
		<g clip-path="url(#SVGID_3_)">
			<path fill="#FFFFFF" d="M414.78,251.137c-0.096,0-0.192-0.037-0.266-0.109c-0.146-0.146-0.146-0.385,0-0.53l67.25-67.25
				c0.146-0.146,0.385-0.146,0.531,0c0.146,0.146,0.146,0.384,0,0.53l-67.25,67.25C414.973,251.1,414.876,251.137,414.78,251.137z"
				/>
		</g>
	</g>
	<g display="none">
		<path display="inline" fill="#FFFFFF" d="M295.18,57.025v173.948H172.82V57.025H295.18 M297.18,55.025H170.82v177.948H297.18
			V55.025L297.18,55.025z"/>
		<g display="inline">
			<path fill="#FFFFFF" d="M193.999,140.604l-2.95,5.963h-1.451l-2.936-5.963v6.869h-2.435v-10.912h3.294l2.81,5.994l2.825-5.994
				h3.278v10.912h-2.436V140.604z"/>
			<path fill="#FFFFFF" d="M209.078,145.966c-1.103,1.077-2.461,1.615-4.074,1.615s-2.971-0.538-4.074-1.615
				c-1.103-1.077-1.654-2.417-1.654-4.02s0.552-2.942,1.654-4.02c1.104-1.077,2.461-1.616,4.074-1.616s2.972,0.539,4.074,1.616
				c1.104,1.077,1.655,2.417,1.655,4.02S210.182,144.889,209.078,145.966z M208.251,141.954c0-0.973-0.313-1.803-0.937-2.49
				s-1.392-1.03-2.303-1.03c-0.91,0-1.678,0.343-2.302,1.03c-0.625,0.687-0.937,1.517-0.937,2.49s0.312,1.8,0.937,2.482
				c0.624,0.681,1.392,1.023,2.302,1.023c0.911,0,1.679-0.342,2.303-1.023C207.938,143.754,208.251,142.927,208.251,141.954z"/>
			<path fill="#FFFFFF" d="M221.909,137.989c1.041,0.952,1.562,2.276,1.562,3.973s-0.508,3.038-1.522,4.027
				s-2.563,1.483-4.644,1.483h-3.731v-10.912h3.856C219.375,136.561,220.868,137.037,221.909,137.989z M220.122,144.475
				c0.599-0.562,0.897-1.379,0.897-2.451s-0.299-1.896-0.897-2.474s-1.517-0.867-2.755-0.867h-1.358v6.635h1.545
				C218.668,145.318,219.523,145.037,220.122,144.475z"/>
			<path fill="#FFFFFF" d="M234.226,136.561v2.169h-5.433v2.248h4.887v2.076h-4.887v2.264h5.604v2.154h-8.039v-10.912H234.226z"/>
			<path fill="#FFFFFF" d="M246.198,140.182c0,1.749-0.692,2.878-2.076,3.388l2.763,3.903h-2.997l-2.42-3.481h-1.686v3.481h-2.436
				v-10.912h4.137c1.696,0,2.906,0.286,3.63,0.858C245.836,137.992,246.198,138.913,246.198,140.182z M243.264,141.478
				c0.301-0.271,0.452-0.7,0.452-1.288c0-0.587-0.156-0.991-0.468-1.209c-0.313-0.219-0.859-0.328-1.64-0.328h-1.826v3.231h1.779
				C242.395,141.884,242.961,141.749,243.264,141.478z"/>
			<path fill="#FFFFFF" d="M257.109,136.561h2.435v10.912h-2.435l-5.198-6.837v6.837h-2.436v-10.912h2.279l5.354,7.024V136.561z"/>
		</g>
		<g display="inline">
			<path fill="#FFFFFF" d="M186.163,156.672c0.453,0,0.823-0.18,1.11-0.537l0.591,0.607c-0.469,0.527-1.021,0.792-1.656,0.792
				s-1.159-0.201-1.57-0.603c-0.412-0.401-0.617-0.908-0.617-1.521s0.209-1.123,0.629-1.532c0.419-0.409,0.932-0.614,1.538-0.614
				c0.677,0,1.243,0.258,1.7,0.773l-0.573,0.649c-0.291-0.361-0.653-0.543-1.086-0.543c-0.347,0-0.643,0.113-0.889,0.34
				s-0.369,0.531-0.369,0.915s0.116,0.691,0.349,0.924S185.833,156.672,186.163,156.672z"/>
			<path fill="#FFFFFF" d="M193.154,156.916c-0.418,0.408-0.932,0.611-1.541,0.611c-0.61,0-1.124-0.203-1.541-0.611
				c-0.418-0.406-0.626-0.914-0.626-1.52c0-0.606,0.208-1.113,0.626-1.521c0.417-0.407,0.931-0.611,1.541-0.611
				c0.609,0,1.123,0.204,1.541,0.611c0.417,0.407,0.626,0.914,0.626,1.521C193.78,156.002,193.571,156.51,193.154,156.916z
				 M192.841,155.399c0-0.368-0.118-0.682-0.354-0.942c-0.236-0.26-0.527-0.389-0.871-0.389c-0.345,0-0.635,0.129-0.871,0.389
				c-0.236,0.261-0.354,0.574-0.354,0.942s0.118,0.681,0.354,0.938s0.526,0.387,0.871,0.387c0.344,0,0.635-0.129,0.871-0.387
				C192.723,156.08,192.841,155.768,192.841,155.399z"/>
			<path fill="#FFFFFF" d="M195.74,157.486v-4.127h0.921v3.307h1.76v0.82H195.74z"/>
			<path fill="#FFFFFF" d="M203.634,156.916c-0.417,0.408-0.931,0.611-1.541,0.611s-1.124-0.203-1.541-0.611
				c-0.417-0.406-0.626-0.914-0.626-1.52c0-0.606,0.209-1.113,0.626-1.521s0.931-0.611,1.541-0.611s1.124,0.204,1.541,0.611
				s0.626,0.914,0.626,1.521C204.26,156.002,204.051,156.51,203.634,156.916z M203.321,155.399c0-0.368-0.118-0.682-0.354-0.942
				c-0.236-0.26-0.526-0.389-0.871-0.389c-0.344,0-0.635,0.129-0.871,0.389c-0.235,0.261-0.354,0.574-0.354,0.942
				s0.118,0.681,0.354,0.938c0.236,0.258,0.527,0.387,0.871,0.387c0.345,0,0.635-0.129,0.871-0.387S203.321,155.768,203.321,155.399
				z"/>
			<path fill="#FFFFFF" d="M209.567,154.729c0,0.662-0.262,1.089-0.785,1.281l1.045,1.477h-1.134l-0.915-1.316h-0.638v1.316h-0.921
				v-4.127h1.564c0.642,0,1.1,0.108,1.373,0.325C209.431,153.9,209.567,154.249,209.567,154.729z M208.458,155.219
				c0.113-0.102,0.171-0.264,0.171-0.486s-0.06-0.375-0.177-0.458c-0.118-0.082-0.325-0.124-0.62-0.124h-0.691v1.222h0.674
				C208.129,155.372,208.344,155.321,208.458,155.219z"/>
			<path fill="#FFFFFF" d="M212.658,154.184c-0.088,0.072-0.133,0.168-0.133,0.289c0,0.12,0.055,0.215,0.162,0.286
				c0.108,0.071,0.358,0.154,0.75,0.251c0.392,0.096,0.696,0.24,0.912,0.434c0.217,0.193,0.325,0.475,0.325,0.845
				s-0.139,0.67-0.416,0.9c-0.277,0.229-0.643,0.346-1.096,0.346c-0.653,0-1.242-0.243-1.766-0.728l0.55-0.672
				c0.444,0.389,0.855,0.584,1.233,0.584c0.17,0,0.303-0.036,0.398-0.109c0.097-0.072,0.146-0.171,0.146-0.295
				s-0.052-0.223-0.154-0.295c-0.103-0.073-0.305-0.147-0.607-0.222c-0.48-0.114-0.832-0.263-1.055-0.446
				c-0.222-0.183-0.333-0.47-0.333-0.861c0-0.393,0.141-0.693,0.422-0.906s0.633-0.319,1.054-0.319c0.275,0,0.552,0.048,0.827,0.142
				c0.275,0.095,0.516,0.229,0.72,0.402l-0.466,0.672c-0.358-0.271-0.729-0.406-1.11-0.406
				C212.868,154.074,212.747,154.109,212.658,154.184z"/>
			<path fill="#FFFFFF" d="M221.188,157.486h-1.807v-4.127h1.605c0.279,0,0.521,0.033,0.724,0.1
				c0.202,0.067,0.355,0.158,0.457,0.272c0.186,0.212,0.278,0.453,0.278,0.72c0,0.323-0.104,0.563-0.313,0.721
				c-0.07,0.055-0.12,0.09-0.147,0.104s-0.077,0.036-0.147,0.068c0.256,0.055,0.459,0.17,0.611,0.345
				c0.151,0.175,0.227,0.393,0.227,0.652c0,0.288-0.098,0.542-0.295,0.762C222.151,157.358,221.754,157.486,221.188,157.486z
				 M220.302,155.03h0.437c0.256,0,0.446-0.028,0.57-0.083s0.186-0.174,0.186-0.357c0-0.183-0.057-0.304-0.171-0.363
				c-0.114-0.059-0.308-0.088-0.579-0.088h-0.442V155.03z M220.302,156.707h0.632c0.264,0,0.461-0.033,0.593-0.098
				s0.198-0.193,0.198-0.384s-0.07-0.316-0.21-0.378c-0.14-0.061-0.363-0.092-0.67-0.092h-0.543V156.707z"/>
			<path fill="#FFFFFF" d="M227.522,157.486l-0.384-0.892h-1.729l-0.384,0.892h-0.98l1.783-4.127h0.892l1.783,4.127H227.522z
				 M226.276,154.588l-0.52,1.198h1.033L226.276,154.588z"/>
			<path fill="#FFFFFF" d="M232.057,156.672c0.453,0,0.823-0.18,1.11-0.537l0.591,0.607c-0.469,0.527-1.021,0.792-1.656,0.792
				s-1.159-0.201-1.57-0.603c-0.412-0.401-0.617-0.908-0.617-1.521s0.209-1.123,0.629-1.532c0.419-0.409,0.932-0.614,1.538-0.614
				c0.677,0,1.243,0.258,1.7,0.773l-0.573,0.649c-0.291-0.361-0.653-0.543-1.086-0.543c-0.347,0-0.643,0.113-0.889,0.34
				s-0.369,0.531-0.369,0.915s0.116,0.691,0.349,0.924S231.727,156.672,232.057,156.672z"/>
			<path fill="#FFFFFF" d="M235.664,153.359h0.921v1.694l1.56-1.694h1.139l-1.641,1.824c0.142,0.197,0.403,0.563,0.785,1.102
				c0.382,0.537,0.667,0.938,0.855,1.201h-1.074l-1.21-1.629l-0.414,0.46v1.169h-0.921V153.359z"/>
			<path fill="#FFFFFF" d="M243.718,155.385h0.927v1.464c-0.409,0.456-0.976,0.686-1.7,0.686c-0.606,0-1.115-0.201-1.526-0.603
				s-0.617-0.908-0.617-1.521s0.21-1.123,0.629-1.532c0.42-0.409,0.925-0.614,1.518-0.614s1.107,0.194,1.544,0.585l-0.479,0.69
				c-0.185-0.161-0.354-0.272-0.511-0.334c-0.155-0.061-0.323-0.091-0.505-0.091c-0.35,0-0.646,0.119-0.885,0.357
				c-0.24,0.238-0.36,0.552-0.36,0.941s0.115,0.701,0.345,0.936c0.23,0.234,0.505,0.352,0.824,0.352
				c0.318,0,0.584-0.061,0.797-0.184V155.385z"/>
			<path fill="#FFFFFF" d="M249.994,154.729c0,0.662-0.262,1.089-0.785,1.281l1.045,1.477h-1.134l-0.915-1.316h-0.638v1.316h-0.921
				v-4.127h1.564c0.642,0,1.099,0.108,1.373,0.325C249.857,153.9,249.994,154.249,249.994,154.729z M248.884,155.219
				c0.114-0.102,0.171-0.264,0.171-0.486s-0.059-0.375-0.177-0.458c-0.118-0.082-0.324-0.124-0.62-0.124h-0.69v1.222h0.673
				C248.556,155.372,248.77,155.321,248.884,155.219z"/>
			<path fill="#FFFFFF" d="M255.55,156.916c-0.417,0.408-0.931,0.611-1.541,0.611s-1.124-0.203-1.541-0.611
				c-0.417-0.406-0.626-0.914-0.626-1.52c0-0.606,0.209-1.113,0.626-1.521s0.931-0.611,1.541-0.611s1.124,0.204,1.541,0.611
				s0.626,0.914,0.626,1.521C256.176,156.002,255.967,156.51,255.55,156.916z M255.237,155.399c0-0.368-0.118-0.682-0.354-0.942
				c-0.236-0.26-0.526-0.389-0.871-0.389c-0.344,0-0.635,0.129-0.871,0.389c-0.235,0.261-0.354,0.574-0.354,0.942
				s0.118,0.681,0.354,0.938c0.236,0.258,0.527,0.387,0.871,0.387c0.345,0,0.635-0.129,0.871-0.387S255.237,155.768,255.237,155.399
				z"/>
			<path fill="#FFFFFF" d="M259.229,156.42c0.153,0.191,0.36,0.287,0.62,0.287s0.465-0.096,0.616-0.287
				c0.151-0.19,0.228-0.451,0.228-0.781v-2.279h0.921v2.309c0,0.598-0.165,1.058-0.496,1.379c-0.33,0.32-0.753,0.48-1.269,0.48
				c-0.517,0-0.94-0.161-1.272-0.484c-0.333-0.322-0.499-0.781-0.499-1.375v-2.309h0.921v2.279
				C258.998,155.969,259.075,156.229,259.229,156.42z"/>
			<path fill="#FFFFFF" d="M266.638,153.359h0.921v4.127h-0.921l-1.966-2.586v2.586h-0.921v-4.127h0.861l2.025,2.656V153.359z"/>
			<path fill="#FFFFFF" d="M272.908,153.899c0.394,0.36,0.591,0.861,0.591,1.503s-0.192,1.149-0.576,1.523
				c-0.384,0.373-0.969,0.561-1.756,0.561h-1.411v-4.127h1.458C271.95,153.359,272.515,153.539,272.908,153.899z M272.232,156.353
				c0.227-0.212,0.34-0.521,0.34-0.927s-0.113-0.717-0.34-0.936s-0.574-0.328-1.042-0.328h-0.514v2.51h0.584
				C271.683,156.672,272.006,156.565,272.232,156.353z"/>
		</g>
	</g>
	<g display="none">
		<path display="inline" fill="#001451" d="M16.166,221.18h-3.813v-0.851h3.055v-1.626h0.759V221.18z"/>
		<path display="inline" fill="#001451" d="M15.64,213.887c0.376,0.385,0.564,0.859,0.564,1.424c0,0.563-0.188,1.038-0.564,1.424
			c-0.377,0.385-0.845,0.578-1.405,0.578c-0.56,0-1.028-0.193-1.404-0.578c-0.377-0.386-0.565-0.86-0.565-1.424
			c0-0.564,0.188-1.039,0.565-1.424c0.376-0.386,0.845-0.579,1.404-0.579C14.795,213.308,15.263,213.501,15.64,213.887z
			 M14.237,214.176c-0.34,0-0.63,0.108-0.87,0.327c-0.24,0.218-0.36,0.486-0.36,0.805s0.12,0.586,0.36,0.805
			c0.24,0.218,0.53,0.327,0.87,0.327s0.629-0.109,0.867-0.327c0.238-0.219,0.357-0.486,0.357-0.805s-0.119-0.587-0.357-0.805
			C14.866,214.284,14.577,214.176,14.237,214.176z"/>
		<path display="inline" fill="#001451" d="M13.618,208.403c0.611,0,1.006,0.242,1.184,0.726l1.364-0.965v1.047l-1.217,0.846v0.589
			h1.217v0.852h-3.813v-1.446c0-0.593,0.1-1.016,0.3-1.268C12.853,208.53,13.175,208.403,13.618,208.403z M14.071,209.43
			c-0.095-0.105-0.245-0.158-0.45-0.158c-0.206,0-0.347,0.054-0.423,0.163s-0.115,0.3-0.115,0.573v0.638h1.13v-0.621
			C14.213,209.733,14.165,209.535,14.071,209.43z"/>
		<path display="inline" fill="#001451" d="M12.353,203.69h0.758v1.898h0.786v-1.708h0.726v1.708h0.791v-1.959h0.753v2.81h-3.813
			V203.69z"/>
		<path display="inline" fill="#001451" d="M13.766,198.365l2.084,1.031v0.508l-2.084,1.025h2.4v0.851h-3.813v-1.15l2.095-0.982
			l-2.095-0.987v-1.146h3.813v0.851H13.766z"/>
		<path display="inline" fill="#001451" d="M12.353,192.954v-0.852h3.813v0.852H12.353z"/>
		<path display="inline" fill="#001451" d="M12.693,187.446c0.228-0.267,0.576-0.4,1.048-0.4c0.471,0,0.815,0.138,1.033,0.412
			c0.219,0.274,0.327,0.693,0.327,1.257v0.508h1.064v0.851h-3.813v-1.348C12.353,188.141,12.466,187.714,12.693,187.446z
			 M14.193,188.071c-0.114-0.102-0.281-0.152-0.502-0.152c-0.22,0-0.376,0.066-0.469,0.199s-0.14,0.339-0.14,0.619v0.485h1.282
			v-0.573C14.365,188.366,14.309,188.173,14.193,188.071z"/>
		<path display="inline" fill="#001451" d="M13.113,184.396c0.067,0.082,0.156,0.123,0.268,0.123s0.199-0.05,0.265-0.149
			c0.065-0.101,0.143-0.331,0.231-0.693c0.09-0.361,0.223-0.643,0.401-0.843c0.178-0.2,0.438-0.3,0.78-0.3s0.619,0.128,0.832,0.385
			c0.213,0.256,0.318,0.594,0.318,1.012c0,0.604-0.224,1.147-0.671,1.631l-0.622-0.507c0.36-0.411,0.541-0.791,0.541-1.141
			c0-0.156-0.034-0.279-0.102-0.368s-0.158-0.134-0.272-0.134s-0.206,0.048-0.272,0.142c-0.067,0.095-0.136,0.282-0.205,0.563
			c-0.105,0.443-0.243,0.769-0.412,0.974s-0.435,0.309-0.796,0.309c-0.362,0-0.642-0.131-0.838-0.391s-0.295-0.584-0.295-0.974
			c0-0.255,0.044-0.509,0.132-0.764c0.087-0.255,0.211-0.477,0.37-0.666l0.622,0.432c-0.251,0.331-0.376,0.673-0.376,1.025
			C13.013,184.203,13.046,184.315,13.113,184.396z"/>
		<path display="inline" fill="#001451" d="M15.181,179.708c0.177-0.142,0.265-0.332,0.265-0.572s-0.088-0.431-0.265-0.57
			c-0.176-0.14-0.417-0.21-0.723-0.21h-2.105v-0.852h2.133c0.553,0,0.978,0.153,1.274,0.459c0.296,0.306,0.444,0.696,0.444,1.173
			s-0.149,0.868-0.447,1.176c-0.299,0.307-0.722,0.461-1.271,0.461h-2.133v-0.852h2.105
			C14.764,179.921,15.005,179.851,15.181,179.708z"/>
		<path display="inline" fill="#001451" d="M13.766,172.114l2.084,1.031v0.508l-2.084,1.025h2.4v0.851h-3.813v-1.15l2.095-0.982
			l-2.095-0.987v-1.146h3.813v0.851H13.766z"/>
		<path display="inline" fill="#001451" d="M12.852,163.789c0.333-0.363,0.796-0.545,1.389-0.545s1.062,0.177,1.407,0.531
			s0.519,0.896,0.519,1.623v1.304h-3.813v-1.348C12.353,164.675,12.519,164.153,12.852,163.789z M15.118,164.414
			c-0.196-0.209-0.481-0.313-0.856-0.313c-0.374,0-0.663,0.104-0.864,0.313c-0.202,0.209-0.303,0.53-0.303,0.963v0.475h2.318v-0.54
			C15.413,164.922,15.314,164.623,15.118,164.414z"/>
		<path display="inline" fill="#001451" d="M15.64,158.209c0.376,0.385,0.564,0.859,0.564,1.424c0,0.563-0.188,1.038-0.564,1.424
			c-0.377,0.385-0.845,0.578-1.405,0.578c-0.56,0-1.028-0.193-1.404-0.578c-0.377-0.386-0.565-0.86-0.565-1.424
			c0-0.564,0.188-1.039,0.565-1.424c0.376-0.386,0.845-0.579,1.404-0.579C14.795,157.63,15.263,157.823,15.64,158.209z
			 M14.237,158.498c-0.34,0-0.63,0.108-0.87,0.327c-0.24,0.218-0.36,0.486-0.36,0.805s0.12,0.586,0.36,0.805
			c0.24,0.218,0.53,0.327,0.87,0.327s0.629-0.109,0.867-0.327c0.238-0.219,0.357-0.486,0.357-0.805s-0.119-0.587-0.357-0.805
			C14.866,158.606,14.577,158.498,14.237,158.498z"/>
		<path display="inline" fill="#001451" d="M16.166,155.819h-3.813v-0.852h3.055v-1.625h0.759V155.819z"/>
		<path display="inline" fill="#001451" d="M15.64,148.525c0.376,0.386,0.564,0.86,0.564,1.424s-0.188,1.038-0.564,1.424
			c-0.377,0.386-0.845,0.578-1.405,0.578c-0.56,0-1.028-0.192-1.404-0.578c-0.377-0.386-0.565-0.86-0.565-1.424
			s0.188-1.038,0.565-1.424c0.376-0.386,0.845-0.578,1.404-0.578C14.795,147.947,15.263,148.14,15.64,148.525z M14.237,148.814
			c-0.34,0-0.63,0.109-0.87,0.327c-0.24,0.219-0.36,0.486-0.36,0.805s0.12,0.587,0.36,0.805c0.24,0.219,0.53,0.327,0.87,0.327
			s0.629-0.108,0.867-0.327c0.238-0.218,0.357-0.486,0.357-0.805s-0.119-0.586-0.357-0.805
			C14.866,148.924,14.577,148.814,14.237,148.814z"/>
		<path display="inline" fill="#001451" d="M13.618,143.042c0.611,0,1.006,0.242,1.184,0.726l1.364-0.965v1.047l-1.217,0.846v0.589
			h1.217v0.852h-3.813v-1.446c0-0.593,0.1-1.016,0.3-1.268C12.853,143.169,13.175,143.042,13.618,143.042z M14.071,144.068
			c-0.095-0.105-0.245-0.158-0.45-0.158c-0.206,0-0.347,0.054-0.423,0.163s-0.115,0.3-0.115,0.573v0.638h1.13v-0.621
			C14.213,144.372,14.165,144.174,14.071,144.068z"/>
		<path display="inline" fill="#001451" d="M13.113,137.655c0.067,0.082,0.156,0.123,0.268,0.123s0.199-0.051,0.265-0.15
			s0.143-0.331,0.231-0.692c0.09-0.362,0.223-0.644,0.401-0.844c0.178-0.199,0.438-0.3,0.78-0.3s0.619,0.128,0.832,0.385
			s0.318,0.594,0.318,1.012c0,0.604-0.224,1.147-0.671,1.632l-0.622-0.508c0.36-0.411,0.541-0.791,0.541-1.14
			c0-0.157-0.034-0.279-0.102-0.369c-0.067-0.089-0.158-0.133-0.272-0.133s-0.206,0.047-0.272,0.142
			c-0.067,0.095-0.136,0.282-0.205,0.562c-0.105,0.444-0.243,0.769-0.412,0.974c-0.169,0.206-0.435,0.309-0.796,0.309
			c-0.362,0-0.642-0.13-0.838-0.39c-0.196-0.261-0.295-0.585-0.295-0.975c0-0.254,0.044-0.509,0.132-0.764
			c0.087-0.254,0.211-0.476,0.37-0.665l0.622,0.431c-0.251,0.331-0.376,0.673-0.376,1.025
			C13.013,137.462,13.046,137.573,13.113,137.655z"/>
		<path display="inline" fill="#001451" d="M12.353,133.976v-0.851h3.813v0.851H12.353z"/>
		<path display="inline" fill="#001451" d="M13.089,129.48h3.077v0.852h-3.077v1.08h-0.736V128.4h0.736V129.48z"/>
		<path display="inline" fill="#001451" d="M16.166,121.439l-0.824,0.354v1.599l0.824,0.354v0.905l-3.813-1.647v-0.823l3.813-1.648
			V121.439z M13.487,122.591l1.107,0.479v-0.954L13.487,122.591z"/>
		<path display="inline" fill="#001451" d="M13.766,115.586l2.084,1.031v0.507l-2.084,1.025h2.4v0.852h-3.813v-1.151l2.095-0.981
			l-2.095-0.988v-1.146h3.813v0.852H13.766z"/>
		<path display="inline" fill="#001451" d="M12.353,109.956h0.758v1.898h0.786v-1.708h0.726v1.708h0.791v-1.959h0.753v2.81h-3.813
			V109.956z"/>
		<path display="inline" fill="#001451" d="M13.089,106.432h3.077v0.851h-3.077v1.08h-0.736v-3.011h0.736V106.432z"/>
	</g>
	<g display="none">
		<g display="inline">
			<path fill="#1A1A1A" d="M433.005,255.334c0.252-0.2,0.568-0.301,0.945-0.301c0.379,0,0.693,0.101,0.944,0.301
				s0.376,0.446,0.376,0.739s-0.112,0.544-0.338,0.755c0.316,0.244,0.475,0.564,0.475,0.961c0,0.334-0.135,0.616-0.403,0.845
				c-0.27,0.229-0.62,0.344-1.054,0.344c-0.432,0-0.783-0.114-1.053-0.344c-0.269-0.229-0.403-0.511-0.403-0.845
				c0-0.396,0.158-0.717,0.475-0.961c-0.229-0.214-0.344-0.467-0.344-0.758S432.751,255.534,433.005,255.334z M433.536,258.141
				c0.127,0.085,0.266,0.128,0.414,0.128c0.15,0,0.288-0.043,0.416-0.128c0.127-0.086,0.19-0.21,0.19-0.374
				c0-0.163-0.062-0.289-0.186-0.376c-0.124-0.088-0.264-0.131-0.421-0.131c-0.156,0-0.296,0.043-0.42,0.131
				c-0.123,0.087-0.186,0.213-0.186,0.376C433.345,257.931,433.409,258.055,433.536,258.141z M433.588,256.474
				c0.104,0.088,0.225,0.131,0.362,0.131c0.139,0,0.26-0.043,0.363-0.131c0.104-0.087,0.156-0.195,0.156-0.324
				s-0.052-0.237-0.153-0.324c-0.103-0.088-0.224-0.132-0.366-0.132c-0.141,0-0.264,0.044-0.365,0.132
				c-0.102,0.087-0.152,0.195-0.152,0.324S433.484,256.387,433.588,256.474z"/>
			<path fill="#1A1A1A" d="M438.522,257.287v-0.666h0.818v0.666h0.431v0.736h-0.431v0.911h-0.818v-0.911h-1.533v-0.649l1.358-2.253
				h0.928l-1.293,2.166H438.522z"/>
			<path fill="#1A1A1A" d="M443.853,255.121v0.736h-1.506v0.639c0.113-0.033,0.242-0.05,0.388-0.05c0.367,0,0.684,0.111,0.949,0.333
				s0.398,0.521,0.398,0.897c0,0.377-0.138,0.688-0.412,0.933c-0.274,0.246-0.614,0.368-1.018,0.368
				c-0.517,0-0.947-0.19-1.293-0.572l0.448-0.622c0.032,0.033,0.076,0.073,0.131,0.12s0.154,0.11,0.299,0.188
				c0.146,0.078,0.291,0.117,0.438,0.117c0.145,0,0.273-0.044,0.387-0.131c0.113-0.088,0.17-0.217,0.17-0.388
				s-0.062-0.303-0.184-0.396c-0.121-0.093-0.279-0.139-0.472-0.139s-0.417,0.068-0.671,0.207l-0.354-0.382v-1.86H443.853z"/>
		</g>
		<g display="inline">
			<path fill="#1A1A1A" d="M394.224,267.205v-3.813h0.852v3.055h1.625v0.759H394.224z"/>
			<path fill="#1A1A1A" d="M401.518,266.679c-0.386,0.376-0.86,0.564-1.424,0.564s-1.038-0.188-1.424-0.564
				c-0.386-0.377-0.578-0.845-0.578-1.405c0-0.56,0.192-1.028,0.578-1.404c0.386-0.377,0.86-0.565,1.424-0.565
				s1.038,0.188,1.424,0.565c0.386,0.376,0.579,0.845,0.579,1.404C402.097,265.834,401.903,266.302,401.518,266.679z
				 M401.229,265.276c0-0.34-0.108-0.63-0.327-0.87s-0.486-0.36-0.805-0.36s-0.586,0.12-0.805,0.36s-0.327,0.53-0.327,0.87
				s0.108,0.629,0.327,0.867s0.486,0.357,0.805,0.357s0.586-0.119,0.805-0.357S401.229,265.616,401.229,265.276z"/>
			<path fill="#1A1A1A" d="M407.001,264.657c0,0.611-0.242,1.006-0.727,1.184l0.966,1.364h-1.048l-0.846-1.217h-0.588v1.217h-0.852
				v-3.813h1.445c0.594,0,1.016,0.1,1.269,0.3S407.001,264.214,407.001,264.657z M405.975,265.11
				c0.105-0.095,0.158-0.245,0.158-0.45c0-0.206-0.054-0.347-0.163-0.423s-0.301-0.115-0.573-0.115h-0.638v1.13h0.621
				C405.671,265.252,405.869,265.204,405.975,265.11z"/>
			<path fill="#1A1A1A" d="M411.714,263.392v0.758h-1.898v0.786h1.707v0.726h-1.707v0.791h1.959v0.753h-2.811v-3.813H411.714z"/>
			<path fill="#1A1A1A" d="M417.038,264.805l-1.031,2.084H415.5l-1.025-2.084v2.4h-0.851v-3.813h1.15l0.982,2.095l0.987-2.095h1.146
				v3.813h-0.852V264.805z"/>
			<path fill="#1A1A1A" d="M422.45,263.392h0.852v3.813h-0.852V263.392z"/>
			<path fill="#1A1A1A" d="M427.958,263.732c0.267,0.228,0.4,0.576,0.4,1.048c0,0.471-0.138,0.815-0.412,1.033
				c-0.274,0.219-0.693,0.327-1.258,0.327h-0.507v1.064h-0.851v-3.813h1.348C427.264,263.392,427.69,263.505,427.958,263.732z
				 M427.333,265.232c0.102-0.114,0.152-0.281,0.152-0.502c0-0.22-0.066-0.376-0.199-0.469s-0.339-0.14-0.619-0.14h-0.485v1.282
				h0.573C427.038,265.404,427.231,265.348,427.333,265.232z"/>
			<path fill="#1A1A1A" d="M431.007,264.152c-0.082,0.067-0.123,0.156-0.123,0.268s0.051,0.199,0.15,0.265s0.331,0.143,0.693,0.231
				c0.361,0.09,0.643,0.223,0.843,0.401c0.2,0.178,0.3,0.438,0.3,0.78s-0.128,0.619-0.385,0.832
				c-0.256,0.213-0.594,0.318-1.012,0.318c-0.604,0-1.147-0.224-1.631-0.671l0.507-0.622c0.411,0.36,0.791,0.541,1.14,0.541
				c0.157,0,0.279-0.034,0.369-0.102c0.089-0.067,0.133-0.158,0.133-0.272s-0.047-0.206-0.141-0.272
				c-0.096-0.067-0.283-0.136-0.563-0.205c-0.443-0.105-0.769-0.243-0.974-0.412c-0.206-0.169-0.309-0.435-0.309-0.796
				c0-0.362,0.13-0.642,0.39-0.838c0.261-0.196,0.585-0.295,0.975-0.295c0.254,0,0.509,0.044,0.764,0.132
				c0.254,0.087,0.477,0.211,0.666,0.37l-0.432,0.622c-0.331-0.251-0.673-0.376-1.025-0.376
				C431.2,264.052,431.089,264.085,431.007,264.152z"/>
			<path fill="#1A1A1A" d="M435.696,266.22c0.141,0.177,0.332,0.265,0.572,0.265s0.43-0.088,0.57-0.265
				c0.14-0.176,0.21-0.417,0.21-0.723v-2.105h0.851v2.133c0,0.553-0.152,0.978-0.458,1.274c-0.306,0.296-0.696,0.444-1.173,0.444
				s-0.868-0.149-1.176-0.447c-0.307-0.299-0.461-0.722-0.461-1.271v-2.133h0.852v2.105
				C435.483,265.803,435.554,266.044,435.696,266.22z"/>
			<path fill="#1A1A1A" d="M443.29,264.805l-1.031,2.084h-0.508l-1.025-2.084v2.4h-0.852v-3.813h1.151l0.981,2.095l0.988-2.095
				h1.146v3.813h-0.851V264.805z"/>
		</g>
	</g>
	<g display="none">
		<path display="inline" fill="#1A1A1A" d="M21.275,20.391l-1.345,2.718H19.27l-1.338-2.718v3.13h-1.109v-4.973h1.501l1.28,2.732
			l1.288-2.732h1.494v4.973h-1.11V20.391z"/>
		<path display="inline" fill="#1A1A1A" d="M25.886,18.548h1.109v4.973h-1.109V18.548z"/>
		<path display="inline" fill="#1A1A1A" d="M33.975,18.548h1.109v4.973h-1.109l-2.369-3.116v3.116h-1.11v-4.973h1.039l2.44,3.202
			V18.548z"/>
		<path display="inline" fill="#1A1A1A" d="M38.584,18.548h1.11v4.973h-1.11V18.548z"/>
		<path display="inline" fill="#1A1A1A" d="M47.648,20.391l-1.345,2.718h-0.662l-1.337-2.718v3.13h-1.11v-4.973h1.501l1.281,2.732
			l1.287-2.732h1.494v4.973h-1.109V20.391z"/>
		<path display="inline" fill="#1A1A1A" d="M55.801,23.521l-0.462-1.074h-2.085l-0.462,1.074H51.61l2.148-4.973h1.074l2.149,4.973
			H55.801z M54.3,20.028l-0.626,1.444h1.245L54.3,20.028z"/>
		<path display="inline" fill="#1A1A1A" d="M59.835,23.521v-4.973h1.109v3.984h2.12v0.989H59.835z"/>
		<path display="inline" fill="#1A1A1A" d="M20.248,29.877c0.348,0.296,0.522,0.752,0.522,1.366s-0.179,1.063-0.537,1.348
			c-0.358,0.284-0.905,0.427-1.64,0.427h-0.662v1.387h-1.109v-4.973h1.757C19.343,29.432,19.899,29.581,20.248,29.877z
			 M19.433,31.833c0.133-0.149,0.199-0.368,0.199-0.655c0-0.287-0.086-0.491-0.26-0.612c-0.173-0.121-0.441-0.181-0.807-0.181
			h-0.634v1.672h0.747C19.049,32.058,19.3,31.983,19.433,31.833z"/>
		<path display="inline" fill="#1A1A1A" d="M28.098,33.719c-0.502,0.491-1.121,0.736-1.856,0.736s-1.354-0.246-1.856-0.736
			c-0.503-0.491-0.755-1.102-0.755-1.832s0.252-1.341,0.755-1.832c0.502-0.491,1.121-0.736,1.856-0.736s1.354,0.246,1.856,0.736
			c0.503,0.491,0.755,1.102,0.755,1.832S28.601,33.228,28.098,33.719z M27.721,31.89c0-0.443-0.142-0.821-0.427-1.134
			c-0.284-0.313-0.634-0.47-1.049-0.47s-0.766,0.156-1.05,0.47c-0.284,0.313-0.427,0.691-0.427,1.134
			c0,0.444,0.143,0.821,0.427,1.131s0.635,0.466,1.05,0.466s0.765-0.155,1.049-0.466C27.579,32.711,27.721,32.334,27.721,31.89z"/>
		<path display="inline" fill="#1A1A1A" d="M33.188,30.425c-0.106,0.088-0.16,0.204-0.16,0.349s0.065,0.26,0.195,0.345
			c0.131,0.085,0.432,0.186,0.903,0.302c0.473,0.116,0.839,0.291,1.1,0.523s0.392,0.571,0.392,1.017s-0.167,0.808-0.502,1.085
			c-0.334,0.277-0.774,0.417-1.319,0.417c-0.788,0-1.497-0.292-2.127-0.875l0.661-0.811c0.536,0.47,1.031,0.705,1.487,0.705
			c0.203,0,0.363-0.044,0.479-0.132c0.116-0.087,0.175-0.206,0.175-0.355s-0.062-0.268-0.186-0.356
			c-0.123-0.087-0.367-0.176-0.732-0.267c-0.579-0.138-1.002-0.316-1.27-0.537c-0.269-0.221-0.402-0.567-0.402-1.039
			c0-0.472,0.17-0.836,0.509-1.092c0.339-0.256,0.763-0.384,1.27-0.384c0.332,0,0.664,0.057,0.996,0.171s0.621,0.275,0.868,0.484
			l-0.563,0.811c-0.432-0.327-0.877-0.491-1.337-0.491C33.44,30.293,33.295,30.337,33.188,30.425z"/>
		<path display="inline" fill="#1A1A1A" d="M40.904,30.393v4.013h-1.11v-4.013h-1.408v-0.96h3.927v0.96H40.904z"/>
		<path display="inline" fill="#1A1A1A" d="M48.985,29.432v0.989H46.51v1.024h2.227v0.946H46.51v1.031h2.554v0.982h-3.664v-4.973
			H48.985z"/>
		<path display="inline" fill="#1A1A1A" d="M56.363,31.083c0,0.797-0.315,1.312-0.946,1.543l1.259,1.779h-1.365l-1.103-1.586h-0.769
			v1.586h-1.11v-4.973h1.886c0.772,0,1.324,0.131,1.654,0.392C56.198,30.084,56.363,30.504,56.363,31.083z M55.025,31.673
			c0.138-0.123,0.207-0.319,0.207-0.587s-0.071-0.452-0.214-0.551s-0.392-0.149-0.747-0.149h-0.832v1.473h0.811
			C54.63,31.858,54.888,31.797,55.025,31.673z"/>
	</g>
</g>
</svg>
