<svg id="Layer_1" data-name="Layer 1" xmlns="http://www.w3.org/2000/svg" viewBox="0 0 60 60"><defs><style>.cls-1{fill:#fff;}</style></defs><path class="cls-1" d="M59.1,7A24.21,24.21,0,0,0,57,2.23a.9.9,0,0,0-.94-.4,23.85,23.85,0,0,0-4.88,1.82c-3.46,1.72-5.87,4-7,6.66a12.92,12.92,0,0,0-.41,7.83,24.54,24.54,0,0,0-4.69-4.08A36.37,36.37,0,0,0,35,7.81a.88.88,0,0,0-1.37,1.11,36.05,36.05,0,0,1,3.25,4.77l-8-1.56L21.28,1.76A12.85,12.85,0,0,1,23.5,2a15.22,15.22,0,0,1,6.87,3.54.88.88,0,0,0,1.14-1.34A16.8,16.8,0,0,0,23.84.26c-4-.79-8.73.24-13.6,3A35.74,35.74,0,0,0,4.09,7.64.94.94,0,0,0,4,8.85,35.5,35.5,0,0,0,7.93,15a27.82,27.82,0,0,0,4.16,4.28c-.41.34-.81.7-1.19,1.08a20.32,20.32,0,0,0,6.58,33.35.88.88,0,0,0,.66-1.63A19,19,0,0,1,14.33,50a9.92,9.92,0,0,0-1.49-6.94c-.28-.43.55-2.13,1.05-3.15a16.3,16.3,0,0,0,1.29-3.16,2.39,2.39,0,0,0-.85-2.63,6.73,6.73,0,0,0-2.09-.93,4.14,4.14,0,0,1-1.15-.45A11.14,11.14,0,0,1,9.6,30.34,15.32,15.32,0,0,0,8,27.7a18.66,18.66,0,0,1,5.55-7.31A15.42,15.42,0,0,0,21,23.14c-3.11,2.41-4.12,5.48-2.68,8.44C20,35,23.41,34.47,26.46,34c.53-.09,1.07-.17,1.6-.24a.34.34,0,0,1,.29.06c.67.6.65,3.43.63,5.5,0,2.86,0,5.57,1,6.95a2.69,2.69,0,0,0,2.21,1.07A4.48,4.48,0,0,0,34,46.94c2.65-1.14,5.41-4.55,5-7.26-.37-2.36-.61-3.92,0-5.18s1.81-2.24,4.34-3.62a19,19,0,0,1,.44,4.23,18.47,18.47,0,0,1-5.58,13.06,18.71,18.71,0,0,1-15,5.18.88.88,0,0,0-.19,1.75,20.48,20.48,0,0,0,16.47-5.67,20.3,20.3,0,0,0-3.13-31.54c1.16-.83,2-1.55,2.5-2a23.56,23.56,0,0,1,5.39,5.39,23.33,23.33,0,0,1-22.79,36.6A23.32,23.32,0,0,1,2.08,31.1a.88.88,0,0,0-1.74-.28A25.08,25.08,0,0,0,21,59.66a25.34,25.34,0,0,0,4.15.34,25.11,25.11,0,0,0,23-35.11A25.69,25.69,0,0,0,52.2,23.3c3.46-1.73,5.87-4,7-6.66S60.27,10.67,59.1,7ZM8,31.16A11,11,0,0,0,10,34.11a4.9,4.9,0,0,0,1.76.78c1.72.53,1.92.79,1.75,1.47a15.62,15.62,0,0,1-1.16,2.8c-.91,1.85-1.77,3.61-1,4.87a8.4,8.4,0,0,1,1.33,4.67,18.73,18.73,0,0,1-5.42-19C7.53,30.19,7.8,30.7,8,31.16ZM50.6,13.89,48.1,7.83a16.69,16.69,0,0,1,3.83-2.59,24.28,24.28,0,0,1,2.78-1.17Zm5.73-9.14a22.67,22.67,0,0,1,1.1,2.81,16.82,16.82,0,0,1,.8,4.24l-5.86,2.42ZM45.82,11a7.75,7.75,0,0,1,1-1.7l2.84,6.89-2.55,6.1A23.14,23.14,0,0,1,46,19.38C45.23,17.11,44.62,13.81,45.82,11Zm5.63,10.72a23.26,23.26,0,0,1-2.69,1.13l2.65-6.33,6.75-2.78A8.57,8.57,0,0,1,57.57,16C56.38,18.77,53.58,20.64,51.45,21.71Zm-31.72-.5c-.31-.06-.62-.14-.92-.22l9.74-7.13,8,1.56C33.64,17.72,26.54,22.54,19.73,21.21Zm-8.9-5.5A34.56,34.56,0,0,1,6.35,9.53l10.2,2ZM12.64,4,16.9,9.8,6.64,7.8A34.51,34.51,0,0,1,12.64,4Zm6.81,6.31-5.18-7a19.61,19.61,0,0,1,4.92-1.36l7.16,9.76ZM18.9,12l7.3,1.42-9.37,6.86A18.45,18.45,0,0,1,12.09,17ZM42.77,29.14c-3.17,1.69-4.72,3-5.46,4.63s-.5,3.6-.1,6.18c.24,1.53-1.57,4.36-3.94,5.37-.88.38-1.51.34-1.86-.13-.7-.91-.68-3.66-.67-5.87,0-3.06,0-5.7-1.22-6.82A2.08,2.08,0,0,0,27.84,32c-.55.06-1.12.15-1.66.24-3.23.52-5.27.72-6.32-1.44-1.71-3.51,1.75-6.11,3.32-7.06a6.45,6.45,0,0,0,.88-.68A25.6,25.6,0,0,0,34.61,19,18.67,18.67,0,0,1,42.77,29.14Z"/></svg>